<svg width="336" height="521" fill="none" xmlns="http://www.w3.org/2000/svg"><path d="m228.747 126.224-43.999-16.651-.552-.217s.16-1.156.291-2.891c.276-3.498.421-9.193-1.235-11.115-2.455-2.89-9.398-.462-16.181-3.556-6.784-3.093-19.32 2.443-19.32 2.443s-9.064-1.662-13.073 4.842c-2.033 5.247-1.336 13.009-1.336 13.009l-.828.289c-5.244 1.952-33.772 12.633-39.8 16.926-6.668 4.698-14.047 52.931-16.414 67.097-2.368 14.165-6.58 26.928-4.445 31.799 2.135 4.871 32.784 28.359 50.418 34.415 17.635 6.057 80.168 4.337 80.168 4.337s1.016-.275 2.832-.853c10.575-3.382 48.095-17.345 68.009-50.127.029.057-19.261-62.862-44.535-89.747Zm-118.878 81.132c-3.24 2.284-1.453 11.13-1.453 11.13l-5.505-4.828 13.828-33.837 5.898 26.017s-9.529-.751-12.768 1.518Zm110.627 21.493c-1.525.781 4.358-15.48 1.569-19.166-2.789-3.686-11.199-3.339-11.199-3.339l.711-4.437 4.983-25.44 1.655-1.951s17.112 29.183 20.177 39.474c0 .029-18.651 14.859-17.896 14.859Z" fill="#EBA417"/><path d="m145.674 20.694-22.718 23.994s-3.123 2.76-1.888 9.713c1.235 6.953 4.14 13.01 6.333 13.414 1.737.302 3.496.457 5.258.462 0 0 4.867 10.494 8.324 14.614 0 0 1.191 16.203.552 20.698 0 0 8.163 7.097 15.847 7.993 7.684.896 19.552-10.812 19.552-10.812l2.905-14.338s6.972-10.523 7.437-13.327c.465-2.804 3.66-2.081 5.229-3.469s5.186-7.56 5.81-13.399c.625-5.84.64-12.546-6.173-10.58-5.912-1.576-2.208-14.007-2.208-14.007l-10.386-9.106-33.874-1.85Z" fill="#E1E1E6"/><path opacity=".5" d="M184.748 109.573a25.332 25.332 0 0 1-1.176 2.616c-3.748 7.025-20.075 20.424-20.075 20.424l-4.938-15.105-2.702 15.105c-5.447-2.37-22.065-16.695-22.065-16.695s-.566-1.344-1.249-3.44l.828-.289s-.697-7.819 1.336-13.008c3.98-6.505 13.074-4.843 13.074-4.843s12.535-5.536 19.319-2.442c6.783 3.093 13.726.693 16.181 3.555s.944 13.963.944 13.963l.523.159Z" fill="#E1E1E6"/><path opacity=".2" d="m228.747 126.224-43.999-16.651-.552-.217s.16-1.156.291-2.891l-.915 5.681-6.508 8.788a180.486 180.486 0 0 1 20.336 8.904 17.793 17.793 0 0 1 7.385 7.422 17.676 17.676 0 0 1 1.912 10.27l-8.106 69.019-3.326 39.185 10.037 10.364c10.575-3.382 48.095-17.345 68.009-50.127 0 .057-19.29-62.862-44.564-89.747Zm-8.251 102.625c-1.525.781 4.358-15.48 1.569-19.166-2.789-3.686-11.2-3.339-11.2-3.339l.712-4.437 4.983-25.44 1.655-1.951s17.112 29.183 20.177 39.474c0 .029-18.651 14.859-17.896 14.859ZM125.556 209.683l-6.842-22.751s-12.274-41.643-20.684-51.905l2.208 29.284s-7.263 34.979-13.901 45.372c-6.639 10.393-8.12 13.009 0 13.009s27.889 15.668 27.889 15.668l-1.525-13.009 12.855-15.668Zm-17.242 8.803-5.505-4.828 13.828-33.837 5.898 26.017s-9.471-.708-12.71 1.561c-3.239 2.27-1.511 11.087-1.511 11.087Z" fill="#000"/><path d="M140.983 82.89s1.251 12.272 0 17.88M178.197 99.123a52.576 52.576 0 0 1 1.366-11.723" stroke="#313B40" stroke-width="1.103" stroke-linecap="round" stroke-linejoin="round"/><path d="M181.495 29.844s7.466 9.323 7.074 16.376c-.392 7.054-.944 15.409-.756 23.59.189 8.18-13.203 25.323-20.089 26.841-6.885 1.518-12.811 1.908-17.213-2.472-4.401-4.38-8.802-10.465-14.525-18.27-5.723-7.805-4.358-24.933-4.358-24.933" stroke="#313B40" stroke-width="1.103" stroke-linecap="round" stroke-linejoin="round"/><path d="M163.512 57.495a38.607 38.607 0 0 0-.581 7.761 8.717 8.717 0 0 0 1.917 6.071c.828.839 2.02 1.518 2.179 2.674a2.88 2.88 0 0 1-1.539 2.53c-.932.467-1.83.999-2.688 1.59M151.703 79.017s.857 5.536 8.308 6.692" stroke="#313B40" stroke-width="1.103" stroke-linecap="round" stroke-linejoin="round"/><path d="M152.472 61.715c0 1.604-.697 2.891-1.554 2.891-.857 0-1.554-1.286-1.554-2.89 0-1.605.697-2.892 1.554-2.892.857 0 1.554 1.301 1.554 2.891ZM174.711 62.409c0 1.604-.697 2.89-1.554 2.89-.857 0-1.554-1.3-1.554-2.89s.697-2.89 1.554-2.89c.857 0 1.554 1.285 1.554 2.89Z" fill="#313B40"/><path d="M170.223 55.4s7.263-7.23 13.349.838M154.927 55.544s-4.59-5.118-11.824 0" stroke="#313B40" stroke-width="2.206" stroke-linecap="round" stroke-linejoin="round"/><path d="M132.659 67.815s-5.897 2.067-7.466-2.5c-1.569-4.568-6.943-16.609-2.237-20.627 4.706-4.018 8.483 5.305 8.483 5.305M187.799 70.3s5.476 1.1 7.045-3.468c1.568-4.568 6.943-16.608 2.237-20.626-4.707-4.019-8.483 5.304-8.483 5.304" stroke="#313B40" stroke-width="1.103" stroke-linecap="round" stroke-linejoin="round"/><path d="M131.439 61.715a8.168 8.168 0 0 0 5.171-3.035 12.595 12.595 0 0 0 1.453-4.611c.539-3.074.811-6.188.813-9.309-.064-1.219.049-2.44.334-3.628a9.541 9.541 0 0 1 1.976-3.223c2.048-2.4 4.532-4.423 6.493-6.91a11.544 11.544 0 0 0 2.905-8.672 39.947 39.947 0 0 0 15.384 7.8 40.062 40.062 0 0 0 17.255.598c10.386-2.023 20.336-11.086 19.131-22.476A9.187 9.187 0 0 0 200 3.128a9.26 9.26 0 0 0-4.909-2.8c-5.128-1.272-9.733 1.445-14.381 3.194-8.468 3.18-16.762-2.283-25.318-3.194-7.263-.795-16.312.116-20.118 7.357 0 0-13.073 1.532-18.883 12.286-5.811 10.754 5.185 25.628 5.185 25.628s4.358-5.32 10.067 5.434l-.204 10.682Z" fill="#313B40"/><path d="M182.395 27.097s-3.399 17.634 5.476 26.177c0 0 1.947-5.305 3.908-6.606a20.33 20.33 0 0 0-1.554-19.57c-6.566-10.263-7.83 0-7.83 0Z" fill="#313B40"/><path opacity=".2" d="M198.577 7.035a16.59 16.59 0 0 1-3.863 6.424 16.694 16.694 0 0 1-6.305 4.084c-12.318 5.001-24.273-.535-36.619-1.619-10.067-.896-21.179 8.152-21.891 18.444M122.303 31.65a21.329 21.329 0 0 1 3.775-11.343 21.49 21.49 0 0 1 9.298-7.563" stroke="#E1E1E6" stroke-width="1.103" stroke-linecap="round" stroke-linejoin="round"/><path d="M138.135 99.123a56.235 56.235 0 0 0 19.189 13.008s14.743-4.263 22.238-14.454M153.203 73.484c6.548-2.988 9.421-10.693 6.418-17.209-3.004-6.516-10.747-9.375-17.295-6.386-6.548 2.988-9.421 10.693-6.418 17.209 3.003 6.516 10.746 9.375 17.295 6.386ZM178.479 74.627c7.15-.874 12.235-7.35 11.357-14.465-.878-7.115-7.386-12.175-14.537-11.301-7.15.873-12.235 7.35-11.357 14.465.878 7.115 7.386 12.175 14.537 11.301Z" stroke="#313B40" stroke-width="1.103" stroke-linecap="round" stroke-linejoin="round"/><path d="M140.983 94.28a10.144 10.144 0 0 0-6.29 4.842c-2.31 4.048-.915 16.782-.915 16.782s11.925 11.737 22.079 16.695l2.992-16.753 4.648 16.753s15.717-11.058 20.075-20.41c0 0 1.452-10.913 0-14.454a5.018 5.018 0 0 0-1.799-2.455 5.056 5.056 0 0 0-2.893-.97M122.303 206.358s-4.663-31.076-10.866-43.752M98.03 135.027a125.668 125.668 0 0 1 9.645 16.059M220.496 158.226a89.486 89.486 0 0 1 5.127-15.163M210.865 206.359s3.356-21.306 7.365-38.853M216.559 176.438a24.704 24.704 0 0 1 12.986-8.846" stroke="#313B40" stroke-width="1.103" stroke-linecap="round" stroke-linejoin="round"/><path d="M184.211 109.356s27.061 10.769 44.536 16.883c0 0 21.498 20.106 44.55 89.789 0 0-21.12 35.355-61.298 46.687" stroke="#313B40" stroke-width="1.103" stroke-linecap="round" stroke-linejoin="round"/><path d="m218.971 230.107 19.421-16.088s10.269-7.762 20.946-2.457M218.23 174.516s16.051 23.604 20.162 39.503M108.532 219.382l-5.679-5.363s-8.425-1.445-17.983 4.9M102.853 214.019s7.059-23.126 14.017-34.964" stroke="#313B40" stroke-width="1.103" stroke-linecap="round" stroke-linejoin="round"/><path d="M133.371 112.189S94.428 126.73 90.608 130.98c-3.82 4.249-18.332 85.554-18.724 94.863-.334 8.325 29.996 27.015 45.03 34.892" stroke="#313B40" stroke-width="1.103" stroke-linecap="round" stroke-linejoin="round"/><path d="M162.495 139.667a2.553 2.553 0 0 1-1.587 2.363 2.58 2.58 0 0 1-2.802-.554 2.545 2.545 0 0 1-.557-2.788 2.572 2.572 0 0 1 2.375-1.58 2.57 2.57 0 0 1 1.822.745 2.525 2.525 0 0 1 .749 1.814ZM207.554 275.855h-88.607a2.082 2.082 0 0 1-1.469-.605 2.066 2.066 0 0 1 0-2.924c.39-.388.918-.606 1.469-.606h88.607c.551 0 1.079.218 1.468.606a2.063 2.063 0 0 1 0 2.924 2.077 2.077 0 0 1-1.468.605Z" fill="#313B40"/><path d="m210.662 268.945 11.868-55.504a5.868 5.868 0 0 0-1.195-4.944 5.937 5.937 0 0 0-4.616-2.182H113.151a5.932 5.932 0 0 0-4.582 2.159 5.874 5.874 0 0 0-1.228 4.895l10.647 53.654a5.896 5.896 0 0 0 1.999 3.372 5.938 5.938 0 0 0 3.681 1.383l81.039 1.85a5.97 5.97 0 0 0 3.824-1.275 5.919 5.919 0 0 0 2.131-3.408Z" fill="#E1E1E6" stroke="#313B40" stroke-width="1.103" stroke-linecap="round" stroke-linejoin="round"/><path d="M172.866 238.346a8.196 8.196 0 0 1-1.4 4.565 8.255 8.255 0 0 1-3.712 3.023 8.305 8.305 0 0 1-4.774.462 8.271 8.271 0 0 1-4.228-2.254 8.203 8.203 0 0 1-1.786-8.961 8.235 8.235 0 0 1 3.045-3.689 8.294 8.294 0 0 1 10.439 1.029 8.201 8.201 0 0 1 2.416 5.825Z" fill="#313B40"/><path d="M189.121 211.62h12.303M130.364 211.62h46.7M160.796 63.768h3.471" stroke="#313B40" stroke-width="1.103" stroke-linecap="round" stroke-linejoin="round"/><path d="m23.926 269.854-.9 191.417c0 .603.279 1.182.775 1.608.496.426 1.17.666 1.871.666.685 0 1.342-.229 1.833-.639.491-.41.776-.968.796-1.556l6.359-191.227-10.734-.269ZM10.062 314.308l-.785 197.769c-.002.299.058.595.178.872.12.276.298.528.521.739.224.212.49.379.783.492.293.114.607.171.924.169a2.48 2.48 0 0 0 1.667-.632c.448-.406.713-.96.739-1.546l5.764-197.611-9.791-.252ZM311.994 269.854l.82 191.417c.002.298-.058.594-.177.869-.12.276-.296.527-.518.738a2.42 2.42 0 0 1-.778.494 2.53 2.53 0 0 1-.92.173 2.486 2.486 0 0 1-1.675-.638 2.217 2.217 0 0 1-.735-1.557l-5.773-191.227 9.756-.269ZM325.744 314.308l.819 197.769c.002.299-.059.595-.179.872-.12.276-.297.528-.521.739-.224.212-.49.379-.783.492a2.5 2.5 0 0 1-.923.169 2.466 2.466 0 0 1-1.661-.633 2.2 2.2 0 0 1-.728-1.545l-5.781-197.611 9.757-.252ZM108.106 322.775l-.46 174.885c-.05.437.072.875.341 1.224s.663.581 1.101.647a1.697 1.697 0 0 0 1.085-.61c.271-.333.404-.755.372-1.182l3.436-174.759-5.875-.205ZM228.75 316.425l.504 154.001c.043.373-.084.745-.355 1.04a1.791 1.791 0 0 1-1.099.546 1.774 1.774 0 0 1-1.094-.547 1.295 1.295 0 0 1-.342-1.039l-3.448-153.874 5.834-.127ZM106.066 316.425l.504 154.001c.043.373-.084.745-.355 1.04a1.791 1.791 0 0 1-1.099.546 1.774 1.774 0 0 1-1.094-.547 1.295 1.295 0 0 1-.342-1.039l-3.448-153.874 5.834-.127Z" fill="#E1E1E6" stroke="#263238" stroke-linecap="round" stroke-linejoin="round"/><path d="m225.503 322.775.573 174.885a1.52 1.52 0 0 1-.397 1.224 2.084 2.084 0 0 1-1.284.647 2.097 2.097 0 0 1-1.262-.613 1.536 1.536 0 0 1-.438-1.179l-4.009-174.759 6.817-.205Z" fill="#E1E1E6" stroke="#263238" stroke-linecap="round" stroke-linejoin="round"/><path d="M165.706 336c42.224 0 76.452-7.773 76.452-17.362 0-9.589-34.228-17.362-76.452-17.362-42.223 0-76.451 7.773-76.451 17.362 0 9.589 34.228 17.362 76.451 17.362ZM128.477 466.018s-4.003 5.702-1.134 8.536c2.869 2.834 5.721 1.707 5.429 4.558-.292 2.851-4.862 12.514-8.865 22.757-4.003 10.243 4.295 20.486 12.026 17.652 7.731-2.834 6.872-31.309 8.006-36.431 1.134-5.121 2.01-5.975 1.718-10.806-.292-4.832-.567-9.953-4.295-10.534-3.728-.58-11.167 2.288-12.885 4.268Z" fill="#E1E1E6" stroke="#263238" stroke-linecap="round" stroke-linejoin="round"/><path d="M140.761 511.668c-5.154-1.946-13.057-1.553-17.507-1.109 1.495 6.436 7.216 10.96 12.679 8.962 2.285-.836 3.78-3.875 4.828-7.853Z" fill="#61DCFB" stroke="#263238" stroke-linecap="round" stroke-linejoin="round"/><path d="M119.612 453.505s8.298 13.947 10.583 17.635c2.285 3.687 10.033 2.561 10.892-2.561.859-5.121-3.161-19.342-3.161-19.342l-17.18 4.268h-1.134Z" fill="#E1E1E6" stroke="#263238" stroke-linecap="round" stroke-linejoin="round"/><path d="M99.855 431.312s-2.302 3.704-1.151 6.265c1.15 2.561 4.295 9.953 6.305 13.657 2.01 3.705 11.167 5.976 21.75 4.268 10.583-1.707 16.613-6.555 16.905-10.823.292-4.268-1.718-9.953-3.161-16.782-1.443-6.828-5.154-6.538-10.308-6.538s-26.045 5.975-30.34 9.953Z" fill="#61DCFB" stroke="#263238" stroke-linecap="round" stroke-linejoin="round"/><path d="M130.779 347.66c.155-6.999 4.226-10.448 4.536-15.245a59.968 59.968 0 0 0-1.564-18.899l-7.834-10.635c-22.54.29-38.69.666-38.947.751-.86.273-1.444 5.121-2.01 9.099 0 0-9.57 1.212-7.852 27.673.24 3.688 9.896 46.35 10.6 51.216 4.296 29.722 13.865 44.608 13.865 44.608s.859 3.705 12.026 2.851c11.167-.853 22.334-8.245 22.334-8.245s-5.738-57.857-5.154-83.174Z" fill="#263238" stroke="#263238" stroke-linecap="round" stroke-linejoin="round"/><path d="M104.425 313.516c7.541.386 15.024 1.53 22.334 3.415 9.741 2.851 26.921 8.536 30.924 8.536s2.869-14.802 2.869-17.635c0-2.834-51.54-4.559-57.845-4.559s1.718 10.243 1.718 10.243Z" fill="#E1E1E6" stroke="#263238" stroke-linecap="round" stroke-linejoin="round"/><path d="M160.552 307.832s-4.587 2.27-6.305 10.806-4.003 13.094-.567 15.365c3.436 2.27 18.332 3.977 20.616 1.707 2.285-2.271 8.591-13.658 9.742-21.05 1.151-7.392-23.486-6.828-23.486-6.828Z" fill="#61DCFB" stroke="#263238" stroke-linecap="round" stroke-linejoin="round"/><path d="M180.018 310.665a35.618 35.618 0 0 0-6.288 10.243 94.504 94.504 0 0 0-2.869 11.951 112.26 112.26 0 0 1 16.029 5.702c9.174 3.977 24.636 6.828 39.514 10.243 14.878 3.414 18.898 6.828 24.052 6.828s11.46-3.994 19.483-13.657 1.134-30.166-6.872-36.431c-8.006-6.265-50.974-11.37-56.695-9.663-5.721 1.708-26.354 14.784-26.354 14.784Z" fill="#263238" stroke="#263238" stroke-linecap="round" stroke-linejoin="round"/><path d="M129.903 335.181s-5.91 62.841-17.971 72.623M125.728 394.829s-4.69 20.486-16.991 28.63M201.785 323.76s-18.331 1.143-6.305 9.099c12.026 7.955 33.793 13.094 33.793 13.094" stroke="#49606B" stroke-width=".5" stroke-linecap="round" stroke-linejoin="round"/><path d="m334.863 306.887-6.185-5.531-14.294-30.729a8.203 8.203 0 0 0-3.069-3.395 8.268 8.268 0 0 0-4.422-1.231H29.261a8.262 8.262 0 0 0-4.431 1.227 8.19 8.19 0 0 0-3.076 3.399L3.938 308.902 1 307.826v8.758l.137-.102a4.86 4.86 0 0 0 1.68 2.997 4.918 4.918 0 0 0 3.251 1.151H330.07a4.843 4.843 0 0 0 3.386-1.271 4.786 4.786 0 0 0 1.545-3.253l-.137-9.219Z" fill="#5E5E61" stroke="#263238" stroke-linecap="round" stroke-linejoin="round"/><path d="M330.069 312.202h-324c-.803.032-1.6-.14-2.318-.498a4.735 4.735 0 0 1-1.785-1.55 4.695 4.695 0 0 1-.433-4.542l20.22-43.413a8.159 8.159 0 0 1 3.074-3.405 8.233 8.233 0 0 1 4.435-1.222h277.631a8.237 8.237 0 0 1 4.425 1.227 8.152 8.152 0 0 1 3.066 3.4l20.221 43.413a4.681 4.681 0 0 1-.433 4.542 4.744 4.744 0 0 1-4.103 2.048Z" fill="#E1E1E6" stroke="#263238" stroke-linecap="round" stroke-linejoin="round"/><path d="M22.475 283.043s-7.336 5.002-2.749 6.829c4.588 1.827 57.314.461 63.739-1.366 6.425-1.826 13.744-18.676 13.744-21.408 0-2.731-9.243-4.695-12.645-4.848-3.401-.154-48.345 2.561-48.345 2.561l-13.744 18.232ZM284.748 291.699c10.38 0 18.795-3.47 18.795-7.751 0-4.28-8.415-7.751-18.795-7.751-10.38 0-18.795 3.471-18.795 7.751 0 4.281 8.415 7.751 18.795 7.751ZM165.088 301.276c37.223 0 67.398-5.61 67.398-12.531 0-6.92-30.175-12.53-67.398-12.53s-67.398 5.61-67.398 12.53c0 6.921 30.175 12.531 67.398 12.531Z" fill="#A8A8A8" style="mix-blend-mode:multiply" opacity=".5"/><path d="M271.004 253.458s-1.237-4.9-5.343-3.261c-4.106 1.639-3.694 12.463-2.886 18.591.807 6.129 6.373 3.261 6.373 3.261v-3.67s-2.044 1.622-3.075-.615c-1.031-2.236-.824-13.487.206-13.282 1.031.205 3.076 3.671 3.076 3.671s.618-.393 1.649-4.695Z" fill="#61DCFB" stroke="#263238" stroke-linecap="round" stroke-linejoin="round"/><path d="M268.049 254.277v26.837c0 3.158 7.301 5.719 16.321 5.719 9.019 0 16.304-2.561 16.304-5.719v-26.837h-32.625Z" fill="#61DCFB" stroke="#263238" stroke-linecap="round" stroke-linejoin="round"/><path d="M300.674 254.277c0 2.732-7.302 4.934-16.304 4.934-9.003 0-16.321-2.202-16.321-4.934 0-2.731 7.301-4.933 16.321-4.933 9.019 0 16.304 2.219 16.304 4.933Z" fill="#E1E1E6" stroke="#263238" stroke-linecap="round" stroke-linejoin="round"/><path d="M298.543 254.277c0 2.373-6.356 4.285-14.173 4.285s-14.191-1.912-14.191-4.285 6.357-4.285 14.191-4.285c7.834 0 14.173 1.912 14.173 4.285Z" fill="#E1E1E6" stroke="#263238" stroke-linecap="round" stroke-linejoin="round"/><path d="M273.426 257.009a39.272 39.272 0 0 0 21.871 0 39.272 39.272 0 0 0-21.871 0Z" fill="#263238" stroke="#263238" stroke-linecap="round" stroke-linejoin="round"/><path d="m20.448 266.535.206 9.184 62.278.615v-10.619l-62.484.82Z" fill="#E1E1E6" stroke="#263238" stroke-linecap="round" stroke-linejoin="round"/><path d="m82.932 276.334 9.054-19.393v-5.719l-9.466 16.337.412 8.775Z" fill="#E1E1E6" stroke="#263238" stroke-linecap="round" stroke-linejoin="round"/><path d="m20.448 274.9.206 9.202 62.278.614v-10.618l-62.484.802Z" fill="#E1E1E6" stroke="#263238" stroke-linecap="round" stroke-linejoin="round"/><path d="m82.932 284.716 9.054-19.41v-5.719l-9.466 16.337.412 8.792Z" fill="#E1E1E6" stroke="#263238" stroke-linecap="round" stroke-linejoin="round"/><path d="M44.5 243.249s1.443-2.851-.618-4.08c-2.062-1.229-4.313 1.707-5.55 2.646-1.236.939-27.127 17.976-27.952 20.64-.824 2.663 0 8.536 5.55 9.184 5.549.649 10.48-3.056 12.954-3.67 2.473-.615 3.435-.82 3.435-.82l17.06-22.876-4.879-1.024Z" fill="#61DCFB" stroke="#263238" stroke-linecap="round" stroke-linejoin="round"/><path d="M15.93 271.656c5.549.615 10.48-3.055 12.953-3.67 2.474-.615 3.436-.819 3.436-.819l.619-.837-16.03-3.244a5.407 5.407 0 0 0-6.58-.614c-.772 2.629.052 8.553 5.602 9.184Z" fill="#E1E1E6" stroke="#263238" stroke-linecap="round" stroke-linejoin="round"/><path d="M16.96 263.121h48.105c15.015 0 19.534-.82 19.534-.82l9.243-19.001s-29.207 1.844-38.226 1.229a68.271 68.271 0 0 1-11.099-1.229L16.96 263.121Z" fill="#61DCFB" stroke="#263238" stroke-linecap="round" stroke-linejoin="round"/><path d="m16.96 263.121.825 3.67s39.05.205 49.324.205c10.274 0 18.091.41 18.091.41l-.618-5.122-67.622.837ZM85.2 267.354l8.624-19.615v-4.49l-9.243 19.001.619 5.104Z" fill="#E1E1E6" stroke="#263238" stroke-linecap="round" stroke-linejoin="round"/><path d="M223.947 290.299h-117.77a1.98 1.98 0 0 1-1.841-1.208 1.962 1.962 0 0 1 0-1.511 1.968 1.968 0 0 1 1.08-1.063c.241-.098.5-.147.761-.145h117.77a1.974 1.974 0 0 1 1.402.57 1.935 1.935 0 0 1 .574 1.394 1.936 1.936 0 0 1-.574 1.393 1.954 1.954 0 0 1-1.402.57ZM225.081 286.338h-119.78a1.726 1.726 0 0 1-1.18-.463 1.705 1.705 0 0 1-.538-1.142l-6.511-77.762a1.698 1.698 0 0 1 .424-1.341 1.713 1.713 0 0 1 1.294-.571h132.82a1.741 1.741 0 0 1 1.294.571 1.703 1.703 0 0 1 .424 1.341l-6.512 77.762a1.702 1.702 0 0 1-.544 1.148 1.73 1.73 0 0 1-1.191.457Z" fill="#161E22" stroke="#263238" stroke-linecap="round" stroke-linejoin="round"/><path d="M293.407 186.298a10.14 10.14 0 0 0 3.659-5.685 10.439 10.439 0 0 0-.12-5.122M279.697 247.176s11.425-6.829 7.697-14.631c-3.728-7.802-16.339-12.974-16.339-25.13 0-10.482 11.219-14.357 18.538-18.557" stroke="#6C7D85" stroke-linecap="round" stroke-linejoin="round"/><path d="M290.246 246.954s6.373-4.217 6.373-10.909c0-4.49-4.827-7.426-11.201-14.648M281.897 217.027s-4.177-3.261-1.1-9.39" stroke="#6C7D85" stroke-linecap="round" stroke-linejoin="round"/><path fill-rule="evenodd" clip-rule="evenodd" d="M177.213 241.296c5.413 1.637 8.944 4.276 8.944 7.061 0 2.776-3.513 5.415-8.892 7.051 1.258 5.433.711 9.76-1.727 11.148-.572.326-1.232.48-1.961.48-2.385 0-5.509-1.662-8.666-4.559-3.158 2.914-6.282 4.593-8.667 4.593-.729 0-1.389-.154-1.952-.48-2.447-1.388-3.002-5.723-1.753-11.173-5.413-1.637-8.944-4.276-8.944-7.06 0-2.777 3.513-5.407 8.909-7.052-1.258-5.433-.711-9.76 1.727-11.148.572-.325 1.232-.48 1.961-.48v-.008c2.385 0 5.509 1.662 8.666 4.558 3.158-2.913 6.282-4.592 8.667-4.592v.008c.717.001 1.373.156 1.935.48 2.447 1.388 3.002 5.724 1.753 11.173Zm-3.696-9.751c-1.805.005-4.455 1.427-7.279 4.019a41.881 41.881 0 0 1 3.609 4.284c1.952.206 3.809.523 5.509.934.191-.865.347-1.714.442-2.519.4-3.273-.112-5.818-1.292-6.486-.269-.146-.59-.223-.989-.223v-.009Zm-10.038 4.027c-2.828-2.579-5.492-3.992-7.287-3.992v.008c-.4 0-.738.069-.998.223-1.171.677-1.675 3.222-1.267 6.495.104.797.252 1.628.451 2.485a41.018 41.018 0 0 1 5.518-.943 40.62 40.62 0 0 1 3.583-4.276Zm10.211 10.454c.451-1.14.85-2.279 1.171-3.385a39.288 39.288 0 0 0-3.557-.676 44.923 44.923 0 0 1 2.386 4.061Zm-4.893 9.014a45.72 45.72 0 0 0 3.887-6.692 44.31 44.31 0 0 0-1.805-3.41 46.813 46.813 0 0 0-2.099-3.256 45.876 45.876 0 0 0-7.826.008 45.59 45.59 0 0 0-3.886 6.692 44.5 44.5 0 0 0 3.904 6.667 45.835 45.835 0 0 0 7.825-.009Zm6.091-.977a36.338 36.338 0 0 0-1.198-3.41 47.31 47.31 0 0 1-1.128 2.065 47.431 47.431 0 0 1-1.249 2.031 39.477 39.477 0 0 0 3.575-.686Zm-12.407 2.991a35.57 35.57 0 0 0 2.412 2.741 33.604 33.604 0 0 0 2.386-2.741c-.789.042-1.596.06-2.412.06-.807 0-1.605-.026-2.386-.06Zm-7.599-2.982c1.136.274 2.325.497 3.557.677a56.853 56.853 0 0 1-1.25-2.005 39.678 39.678 0 0 1-1.136-2.057 38.283 38.283 0 0 0-1.171 3.385Zm12.38-14.412a35.405 35.405 0 0 0-2.412-2.742 33.456 33.456 0 0 0-2.386 2.742c.789-.043 1.596-.06 2.412-.06.807 0 1.605.025 2.386.06Zm-10.081 4.335a46.78 46.78 0 0 1 1.249-2.03 42.506 42.506 0 0 0-3.575.676c.33 1.114.729 2.262 1.198 3.411a46.5 46.5 0 0 1 1.128-2.057Zm-11.66 4.362c0 1.345 1.986 3.041 5.057 4.335.755.317 1.571.609 2.43.874a39.977 39.977 0 0 1 1.926-5.192 40.76 40.76 0 0 1-1.952-5.218c-.842.265-1.657.548-2.404.865-3.071 1.285-5.057 2.99-5.057 4.336Zm8.432 10.093c-.399 3.273.113 5.818 1.293 6.487.26.145.59.222.98.231 1.805 0 4.46-1.422 7.288-4.019a41.881 41.881 0 0 1-3.609-4.284 42.621 42.621 0 0 1-5.509-.934 26.22 26.22 0 0 0-.443 2.519Zm20.605 6.452c1.171-.677 1.674-3.221 1.266-6.495a23.502 23.502 0 0 0-.451-2.493c-1.7.42-3.557.737-5.517.942a40.537 40.537 0 0 1-3.583 4.276c2.828 2.579 5.491 3.993 7.287 3.993.399 0 .738-.069.998-.223Zm2.203-11.344a27.147 27.147 0 0 0 2.404-.866c3.071-1.285 5.057-2.99 5.066-4.335 0-1.346-1.987-3.042-5.058-4.336a27.81 27.81 0 0 0-2.438-.874 39.977 39.977 0 0 1-1.926 5.192 40.715 40.715 0 0 1 1.952 5.219Zm-7.929-5.201c0 2.162-1.775 3.915-3.965 3.915s-3.965-1.753-3.965-3.915c0-2.163 1.775-3.916 3.965-3.916s3.965 1.753 3.965 3.916Z" fill="#61DCFB"/></svg>