<svg width="110" height="31" fill="none" xmlns="http://www.w3.org/2000/svg"><path d="M5.5 24H.969V7.094H5.5V24ZM.703 2.719c0-.677.224-1.235.672-1.672C1.833.609 2.453.39 3.235.39c.77 0 1.385.218 1.843.656.458.437.688.995.688 1.672 0 .687-.235 1.25-.704 1.687-.458.438-1.067.657-1.828.657-.76 0-1.375-.22-1.843-.657-.459-.437-.688-1-.688-1.687ZM8.578 15.422c0-2.594.615-4.682 1.844-6.266 1.24-1.583 2.906-2.375 5-2.375 1.854 0 3.297.636 4.328 1.907l.188-1.594h4.093v16.343c0 1.48-.338 2.766-1.015 3.86-.667 1.094-1.61 1.927-2.828 2.5-1.22.573-2.646.86-4.282.86-1.24 0-2.448-.25-3.625-.75-1.177-.49-2.068-1.126-2.672-1.907l2-2.75c1.125 1.26 2.49 1.89 4.094 1.89 1.198 0 2.13-.322 2.797-.968.667-.636 1-1.542 1-2.719v-.906c-1.042 1.177-2.412 1.765-4.11 1.765-2.03 0-3.677-.791-4.937-2.375-1.25-1.593-1.875-3.703-1.875-6.328v-.187Zm4.516.328c0 1.531.307 2.734.922 3.61.614.864 1.458 1.296 2.53 1.296 1.376 0 2.36-.515 2.954-1.547V12c-.604-1.031-1.578-1.547-2.922-1.547-1.083 0-1.937.443-2.562 1.328-.615.886-.922 2.209-.922 3.969ZM27.75 21.781c0-.718.24-1.302.719-1.75.49-.448 1.099-.672 1.828-.672.74 0 1.349.224 1.828.672.49.448.734 1.032.734 1.75 0 .709-.24 1.287-.718 1.735-.48.437-1.094.656-1.844.656-.74 0-1.35-.219-1.828-.656-.48-.448-.719-1.026-.719-1.735ZM40.984 7.094l.141 1.953c1.208-1.51 2.828-2.266 4.86-2.266 1.791 0 3.124.526 4 1.578.874 1.052 1.322 2.625 1.343 4.72V24h-4.516V13.187c0-.958-.208-1.65-.624-2.078-.417-.437-1.11-.656-2.079-.656-1.27 0-2.224.542-2.859 1.625V24h-4.516V7.094h4.25ZM62.547 24.313c-2.48 0-4.5-.76-6.063-2.282-1.552-1.52-2.328-3.547-2.328-6.078v-.437c0-1.698.328-3.214.985-4.547.656-1.344 1.583-2.375 2.78-3.094 1.21-.73 2.584-1.094 4.126-1.094 2.312 0 4.13.73 5.453 2.188 1.333 1.458 2 3.526 2 6.203v1.844H58.734c.146 1.104.584 1.99 1.313 2.656.74.666 1.672 1 2.797 1 1.74 0 3.099-.63 4.078-1.89l2.219 2.484c-.678.958-1.594 1.708-2.75 2.25-1.157.53-2.438.797-3.844.797Zm-.516-13.875c-.896 0-1.625.302-2.187.906-.552.604-.907 1.469-1.063 2.594h6.282v-.36c-.021-1-.292-1.77-.813-2.312-.52-.553-1.26-.829-2.219-.829ZM86.781 17.86 89 7.093h4.36L89.046 24h-3.781l-3.204-10.64L78.86 24h-3.765L70.78 7.094h4.36l2.203 10.75 3.094-10.75h3.265l3.078 10.765ZM104.766 19.328c0-.552-.276-.984-.828-1.297-.542-.323-1.417-.61-2.626-.86-4.02-.843-6.03-2.551-6.03-5.124 0-1.5.619-2.75 1.859-3.75 1.25-1.01 2.88-1.516 4.89-1.516 2.146 0 3.86.505 5.141 1.516 1.292 1.01 1.937 2.323 1.937 3.937h-4.515c0-.646-.209-1.177-.625-1.593-.417-.428-1.068-.641-1.953-.641-.761 0-1.349.172-1.766.516a1.628 1.628 0 0 0-.625 1.312c0 .5.234.906.703 1.219.479.302 1.281.568 2.406.797 1.125.219 2.073.469 2.844.75 2.386.875 3.578 2.39 3.578 4.547 0 1.541-.661 2.791-1.984 3.75-1.323.948-3.031 1.422-5.125 1.422-1.417 0-2.677-.25-3.781-.75-1.094-.51-1.954-1.204-2.579-2.079-.624-.885-.937-1.838-.937-2.859h4.281c.042.802.339 1.417.89 1.844.553.427 1.293.64 2.22.64.864 0 1.515-.161 1.953-.484.448-.333.672-.766.672-1.297Z" fill="#E1E1E6"/></svg>